<?xml version="1.0" standalone="no"?>
<svg xmlns="http://www.w3.org/2000/svg" xmlns:xlink="http://www.w3.org/1999/xlink" width="300pt" height="371pt" viewBox="0.00 0.00 300.00 371.40">
<g id="graph0" class="graph" transform="translate(4,367.3999938964844) scale(1)" data-name="G">

<polygon fill="white" stroke="none" points="-4,4 -4,-367.4 296,-367.4 296,4 -4,4" style=""/>
<g id="clust1" class="cluster" data-name="%3">

<polygon fill="none" stroke="#daa520" stroke-width="0.3" points="26,-200.2 26,-355.4 284,-355.4 284,-200.2 26,-200.2" style=""/>
</g>
<g id="clust2" class="cluster" data-name="%11">

<polygon fill="none" stroke="#daa520" stroke-width="0.3" points="8,-8 8,-163.2 266,-163.2 266,-8 8,-8" style=""/>
</g>
<!-- p373d3cfe&#45;7c91&#45;4b82&#45;9f8d&#45;0b4d5ecb8762@/in/dataset -->
<g id="node1" class="node" pointer-events="visible" data-name="p373d3cfe-7c91-4b82-9f8d-0b4d5ecb8762@/in/dataset">

<ellipse fill="#1c9930" stroke="#1c9930" cx="155" cy="-353.6" rx="1.8" ry="1.8" style=""/>
</g>
<!-- p373d3cfe&#45;7c91&#45;4b82&#45;9f8d&#45;0b4d5ecb8762 -->
<g id="node2" class="node" pointer-events="visible" data-name="p373d3cfe-7c91-4b82-9f8d-0b4d5ecb8762">

<polygon fill="#daa520" stroke="none" points="35,-280.8 35,-298.8 60,-298.8 60,-280.8 35,-280.8" style=""/>
<polygon fill="none" stroke="#daa520" points="35,-280.8 35,-298.8 60,-298.8 60,-280.8 35,-280.8" style=""/>
<text text-anchor="start" x="37.78" y="-287.8" font-family="Times,serif" font-weight="bold" font-size="10.00" fill="#ffffff" style="">Plan</text>
<polygon fill="none" stroke="#daa520" points="60,-280.8 60,-298.8 89,-298.8 89,-280.8 60,-280.8" style=""/>
<text text-anchor="start" x="62.56" y="-286.8" font-family="Times,serif" font-size="10.00" fill="#007700" style="">active</text>
<polygon fill="#edd9b4" stroke="none" points="89,-280.8 89,-298.8 275,-298.8 275,-280.8 89,-280.8" style=""/>
<polygon fill="none" stroke="#daa520" points="89,-280.8 89,-298.8 275,-298.8 275,-280.8 89,-280.8" style=""/>
<text text-anchor="start" x="91.89" y="-286.8" font-family="Times,serif" font-size="10.00" style="">id: 373d3cfe-7c91-4b82-9f8d-0b4d5ecb8762</text>
<polygon fill="none" stroke="#daa520" points="35,-262.8 35,-280.8 275,-280.8 275,-262.8 35,-262.8" style=""/>
<text text-anchor="start" x="39.29" y="-268.8" font-family="Times,serif" font-size="10.00" style="">image = localhost:30503/spam-detection-initial-train:v1.0</text>
<polygon fill="none" stroke="#daa520" points="35,-256.8 35,-262.8 275,-262.8 275,-256.8 35,-256.8" style=""/>
<polygon fill="none" stroke="#daa520" points="34,-255.8 34,-299.8 276,-299.8 276,-255.8 34,-255.8" style=""/>
</g>
<!-- p373d3cfe&#45;7c91&#45;4b82&#45;9f8d&#45;0b4d5ecb8762@/in/dataset&#45;&gt;p373d3cfe&#45;7c91&#45;4b82&#45;9f8d&#45;0b4d5ecb8762 -->
<g id="edge1" class="edge" data-name="p373d3cfe-7c91-4b82-9f8d-0b4d5ecb8762@/in/dataset-&gt;p373d3cfe-7c91-4b82-9f8d-0b4d5ecb8762">

<path fill="none" stroke="black" stroke-width="0.3" d="M155,-351.32C155,-346.67 155,-330.12 155,-314" style=""/>
<polygon fill="black" stroke="black" stroke-width="0.3" points="158.5,-314.06 155,-304.06 151.5,-314.06 158.5,-314.06" style=""/>
<text text-anchor="middle" x="175.55" y="-324.8" font-family="Times,serif" font-size="10.00" style="">/in/dataset</text>
</g>
<!-- p373d3cfe&#45;7c91&#45;4b82&#45;9f8d&#45;0b4d5ecb8762@/out/model -->
<g id="node3" class="node" pointer-events="visible" data-name="p373d3cfe-7c91-4b82-9f8d-0b4d5ecb8762@/out/model">

<ellipse fill="#1c9930" stroke="#1c9930" cx="106" cy="-202" rx="1.8" ry="1.8" style=""/>
</g>
<!-- p373d3cfe&#45;7c91&#45;4b82&#45;9f8d&#45;0b4d5ecb8762&#45;&gt;p373d3cfe&#45;7c91&#45;4b82&#45;9f8d&#45;0b4d5ecb8762@/out/model -->
<g id="edge2" class="edge" data-name="p373d3cfe-7c91-4b82-9f8d-0b4d5ecb8762-&gt;p373d3cfe-7c91-4b82-9f8d-0b4d5ecb8762@/out/model">

<path fill="none" stroke="black" stroke-width="0.3" d="M130.91,-252.02C126.12,-246.32 121.42,-240.08 117.67,-233.8 114.01,-227.67 111.14,-220.19 109.17,-214.14" style=""/>
<polygon fill="black" stroke="black" stroke-width="0.3" points="112.57,-213.31 106.43,-204.68 105.85,-215.26 112.57,-213.31" style=""/>
<text text-anchor="middle" x="138.67" y="-224.8" font-family="Times,serif" font-size="10.00" style="">/out/model</text>
</g>
<!-- p373d3cfe&#45;7c91&#45;4b82&#45;9f8d&#45;0b4d5ecb8762@log -->
<g id="node4" class="node" pointer-events="visible" data-name="p373d3cfe-7c91-4b82-9f8d-0b4d5ecb8762@log">

<ellipse fill="#1c9930" stroke="#1c9930" cx="172" cy="-202" rx="1.8" ry="1.8" style=""/>
</g>
<!-- p373d3cfe&#45;7c91&#45;4b82&#45;9f8d&#45;0b4d5ecb8762&#45;&gt;p373d3cfe&#45;7c91&#45;4b82&#45;9f8d&#45;0b4d5ecb8762@log -->
<g id="edge3" class="edge" data-name="p373d3cfe-7c91-4b82-9f8d-0b4d5ecb8762-&gt;p373d3cfe-7c91-4b82-9f8d-0b4d5ecb8762@log">

<path fill="none" stroke="black" stroke-width="0.3" d="M160.76,-251.81C163.69,-239.08 167.11,-224.23 169.4,-214.28" style=""/>
<polygon fill="black" stroke="black" stroke-width="0.3" points="172.78,-215.19 171.62,-204.66 165.96,-213.62 172.78,-215.19" style=""/>
<text text-anchor="middle" x="176.72" y="-224.8" font-family="Times,serif" font-size="10.00" style="">(log)</text>
</g>
<!-- p9d97b674&#45;d324&#45;46b1&#45;8a8f&#45;e3fd9e837f81@/in/model -->
<g id="node7" class="node" pointer-events="visible" data-name="p9d97b674-d324-46b1-8a8f-e3fd9e837f81@/in/model">

<ellipse fill="#1c9930" stroke="#1c9930" cx="106" cy="-161.4" rx="1.8" ry="1.8" style=""/>
</g>
<!-- p373d3cfe&#45;7c91&#45;4b82&#45;9f8d&#45;0b4d5ecb8762@/out/model&#45;&gt;p9d97b674&#45;d324&#45;46b1&#45;8a8f&#45;e3fd9e837f81@/in/model -->
<g id="edge8" class="edge" data-name="p373d3cfe-7c91-4b82-9f8d-0b4d5ecb8762@/out/model-&gt;p9d97b674-d324-46b1-8a8f-e3fd9e837f81@/in/model">

<path fill="none" stroke="black" d="M106,-199.72C106,-195.83 106,-183.88 106,-174.54" style=""/>
<polygon fill="black" stroke="black" points="109.5,-174.68 106,-164.68 102.5,-174.68 109.5,-174.68" style=""/>
</g>
<!-- p9d97b674&#45;d324&#45;46b1&#45;8a8f&#45;e3fd9e837f81@/in/dataset -->
<g id="node5" class="node" pointer-events="visible" data-name="p9d97b674-d324-46b1-8a8f-e3fd9e837f81@/in/dataset">

<ellipse fill="#1c9930" stroke="#1c9930" cx="167" cy="-161.4" rx="1.8" ry="1.8" style=""/>
</g>
<!-- p9d97b674&#45;d324&#45;46b1&#45;8a8f&#45;e3fd9e837f81 -->
<g id="node6" class="node" pointer-events="visible" data-name="p9d97b674-d324-46b1-8a8f-e3fd9e837f81">

<polygon fill="#daa520" stroke="none" points="18,-88.6 18,-106.6 43,-106.6 43,-88.6 18,-88.6" style=""/>
<polygon fill="none" stroke="#daa520" points="18,-88.6 18,-106.6 43,-106.6 43,-88.6 18,-88.6" style=""/>
<text text-anchor="start" x="20.78" y="-95.6" font-family="Times,serif" font-weight="bold" font-size="10.00" fill="#ffffff" style="">Plan</text>
<polygon fill="none" stroke="#daa520" points="43,-88.6 43,-106.6 72,-106.6 72,-88.6 43,-88.6" style=""/>
<text text-anchor="start" x="45.56" y="-94.6" font-family="Times,serif" font-size="10.00" fill="#007700" style="">active</text>
<polygon fill="#ffffff" stroke="none" points="72,-88.6 72,-106.6 257,-106.6 257,-88.6 72,-88.6" style=""/>
<polygon fill="none" stroke="#daa520" points="72,-88.6 72,-106.6 257,-106.6 257,-88.6 72,-88.6" style=""/>
<text text-anchor="start" x="74.66" y="-94.6" font-family="Times,serif" font-size="10.00" style="">id: 9d97b674-d324-46b1-8a8f-e3fd9e837f81</text>
<polygon fill="none" stroke="#daa520" points="18,-70.6 18,-88.6 257,-88.6 257,-70.6 18,-70.6" style=""/>
<text text-anchor="start" x="28.46" y="-76.6" font-family="Times,serif" font-size="10.00" style="">image = localhost:30503/spam-detection-validate:v1.0</text>
<polygon fill="none" stroke="#daa520" points="18,-64.6 18,-70.6 257,-70.6 257,-64.6 18,-64.6" style=""/>
<polygon fill="none" stroke="#daa520" points="16.5,-63.6 16.5,-107.6 257.5,-107.6 257.5,-63.6 16.5,-63.6" style=""/>
</g>
<!-- p9d97b674&#45;d324&#45;46b1&#45;8a8f&#45;e3fd9e837f81@/in/dataset&#45;&gt;p9d97b674&#45;d324&#45;46b1&#45;8a8f&#45;e3fd9e837f81 -->
<g id="edge4" class="edge" data-name="p9d97b674-d324-46b1-8a8f-e3fd9e837f81@/in/dataset-&gt;p9d97b674-d324-46b1-8a8f-e3fd9e837f81">

<path fill="none" stroke="black" stroke-width="0.3" d="M166.58,-159.36C164.8,-154.99 157.75,-137.65 150.98,-120.99" style=""/>
<polygon fill="black" stroke="black" stroke-width="0.3" points="154.25,-119.74 147.24,-111.79 147.76,-122.37 154.25,-119.74" style=""/>
<text text-anchor="middle" x="178.55" y="-132.6" font-family="Times,serif" font-size="10.00" style="">/in/dataset</text>
</g>
<!-- p9d97b674&#45;d324&#45;46b1&#45;8a8f&#45;e3fd9e837f81@/out/metrics -->
<g id="node8" class="node" pointer-events="visible" data-name="p9d97b674-d324-46b1-8a8f-e3fd9e837f81@/out/metrics">

<ellipse fill="#1c9930" stroke="#1c9930" cx="101" cy="-9.8" rx="1.8" ry="1.8" style=""/>
</g>
<!-- p9d97b674&#45;d324&#45;46b1&#45;8a8f&#45;e3fd9e837f81&#45;&gt;p9d97b674&#45;d324&#45;46b1&#45;8a8f&#45;e3fd9e837f81@/out/metrics -->
<g id="edge6" class="edge" data-name="p9d97b674-d324-46b1-8a8f-e3fd9e837f81-&gt;p9d97b674-d324-46b1-8a8f-e3fd9e837f81@/out/metrics">

<path fill="none" stroke="black" stroke-width="0.3" d="M115.59,-59.95C111.57,-54.24 107.82,-47.96 105.23,-41.6 102.76,-35.53 101.68,-28.28 101.23,-22.34" style=""/>
<polygon fill="black" stroke="black" stroke-width="0.3" points="104.73,-22.39 100.97,-12.48 97.74,-22.57 104.73,-22.39" style=""/>
<text text-anchor="middle" x="128.88" y="-32.6" font-family="Times,serif" font-size="10.00" style="">/out/metrics</text>
</g>
<!-- p9d97b674&#45;d324&#45;46b1&#45;8a8f&#45;e3fd9e837f81@log -->
<g id="node9" class="node" pointer-events="visible" data-name="p9d97b674-d324-46b1-8a8f-e3fd9e837f81@log">

<ellipse fill="#1c9930" stroke="#1c9930" cx="172" cy="-9.8" rx="1.8" ry="1.8" style=""/>
</g>
<!-- p9d97b674&#45;d324&#45;46b1&#45;8a8f&#45;e3fd9e837f81&#45;&gt;p9d97b674&#45;d324&#45;46b1&#45;8a8f&#45;e3fd9e837f81@log -->
<g id="edge7" class="edge" data-name="p9d97b674-d324-46b1-8a8f-e3fd9e837f81-&gt;p9d97b674-d324-46b1-8a8f-e3fd9e837f81@log">

<path fill="none" stroke="black" stroke-width="0.3" d="M148.85,-59.61C155.03,-46.59 162.26,-31.34 166.97,-21.4" style=""/>
<polygon fill="black" stroke="black" stroke-width="0.3" points="170.1,-22.96 171.23,-12.43 163.78,-19.97 170.1,-22.96" style=""/>
<text text-anchor="middle" x="171.72" y="-32.6" font-family="Times,serif" font-size="10.00" style="">(log)</text>
</g>
<!-- p9d97b674&#45;d324&#45;46b1&#45;8a8f&#45;e3fd9e837f81@/in/model&#45;&gt;p9d97b674&#45;d324&#45;46b1&#45;8a8f&#45;e3fd9e837f81 -->
<g id="edge5" class="edge" data-name="p9d97b674-d324-46b1-8a8f-e3fd9e837f81@/in/model-&gt;p9d97b674-d324-46b1-8a8f-e3fd9e837f81">

<path fill="none" stroke="black" stroke-width="0.3" d="M106.07,-159.18C106.35,-154.97 107.56,-140.6 111.67,-129.6 112.82,-126.52 114.19,-123.4 115.68,-120.33" style=""/>
<polygon fill="black" stroke="black" stroke-width="0.3" points="118.65,-122.21 120.24,-111.73 112.47,-118.93 118.65,-122.21" style=""/>
<text text-anchor="middle" x="130.17" y="-132.6" font-family="Times,serif" font-size="10.00" style="">/in/model</text>
</g>
</g>
</svg>