<?xml version="1.0" standalone="no"?>
<svg xmlns="http://www.w3.org/2000/svg" xmlns:xlink="http://www.w3.org/1999/xlink" width="295pt" height="371pt" viewBox="0.00 0.00 295.00 371.40">
<g id="graph0" class="graph" transform="translate(4,367.3999938964844) scale(1)" data-name="G">

<polygon fill="white" stroke="none" points="-4,4 -4,-367.4 291,-367.4 291,4 -4,4" style=""/>
<g id="clust1" class="cluster" data-name="%3">

<polygon fill="none" stroke="#daa520" stroke-width="0.3" points="19,-200.2 19,-355.4 279,-355.4 279,-200.2 19,-200.2" style=""/>
</g>
<g id="clust2" class="cluster" data-name="%11">

<polygon fill="none" stroke="#daa520" stroke-width="0.3" points="8,-8 8,-163.2 268,-163.2 268,-8 8,-8" style=""/>
</g>
<!-- p074e3218&#45;c817&#45;4596&#45;ab08&#45;3e9a53b6abc6@/configs -->
<g id="node1" class="node" pointer-events="visible" data-name="p074e3218-c817-4596-ab08-3e9a53b6abc6@/configs">

<ellipse fill="#1c9930" stroke="#1c9930" cx="149" cy="-353.6" rx="1.8" ry="1.8" style=""/>
</g>
<!-- p074e3218&#45;c817&#45;4596&#45;ab08&#45;3e9a53b6abc6 -->
<g id="node2" class="node" pointer-events="visible" data-name="p074e3218-c817-4596-ab08-3e9a53b6abc6">

<polygon fill="#daa520" stroke="none" points="28,-280.8 28,-298.8 53,-298.8 53,-280.8 28,-280.8" style=""/>
<polygon fill="none" stroke="#daa520" points="28,-280.8 28,-298.8 53,-298.8 53,-280.8 28,-280.8" style=""/>
<text text-anchor="start" x="30.78" y="-287.8" font-family="Times,serif" font-weight="bold" font-size="10.00" fill="#ffffff" style="">Plan</text>
<polygon fill="none" stroke="#daa520" points="53,-280.8 53,-298.8 82,-298.8 82,-280.8 53,-280.8" style=""/>
<text text-anchor="start" x="55.56" y="-286.8" font-family="Times,serif" font-size="10.00" fill="#007700" style="">active</text>
<polygon fill="#edd9b4" stroke="none" points="82,-280.8 82,-298.8 270,-298.8 270,-280.8 82,-280.8" style=""/>
<polygon fill="none" stroke="#daa520" points="82,-280.8 82,-298.8 270,-298.8 270,-280.8 82,-280.8" style=""/>
<text text-anchor="start" x="84.78" y="-286.8" font-family="Times,serif" font-size="10.00" style="">id: 074e3218-c817-4596-ab08-3e9a53b6abc6</text>
<polygon fill="none" stroke="#daa520" points="28,-262.8 28,-280.8 270,-280.8 270,-262.8 28,-262.8" style=""/>
<text text-anchor="start" x="38.85" y="-268.8" font-family="Times,serif" font-size="10.00" style="">image = localhost:30503/news-classification-train:v1.0</text>
<polygon fill="none" stroke="#daa520" points="28,-256.8 28,-262.8 270,-262.8 270,-256.8 28,-256.8" style=""/>
<polygon fill="none" stroke="#daa520" points="27,-255.8 27,-299.8 271,-299.8 271,-255.8 27,-255.8" style=""/>
</g>
<!-- p074e3218&#45;c817&#45;4596&#45;ab08&#45;3e9a53b6abc6@/configs&#45;&gt;p074e3218&#45;c817&#45;4596&#45;ab08&#45;3e9a53b6abc6 -->
<g id="edge1" class="edge" data-name="p074e3218-c817-4596-ab08-3e9a53b6abc6@/configs-&gt;p074e3218-c817-4596-ab08-3e9a53b6abc6">

<path fill="none" stroke="black" stroke-width="0.3" d="M149,-351.32C149,-346.67 149,-330.12 149,-314" style=""/>
<polygon fill="black" stroke="black" stroke-width="0.3" points="152.5,-314.06 149,-304.06 145.5,-314.06 152.5,-314.06" style=""/>
<text text-anchor="middle" x="165.11" y="-324.8" font-family="Times,serif" font-size="10.00" style="">/configs</text>
</g>
<!-- p074e3218&#45;c817&#45;4596&#45;ab08&#45;3e9a53b6abc6@/out -->
<g id="node3" class="node" pointer-events="visible" data-name="p074e3218-c817-4596-ab08-3e9a53b6abc6@/out">

<ellipse fill="#1c9930" stroke="#1c9930" cx="121" cy="-202" rx="1.8" ry="1.8" style=""/>
</g>
<!-- p074e3218&#45;c817&#45;4596&#45;ab08&#45;3e9a53b6abc6&#45;&gt;p074e3218&#45;c817&#45;4596&#45;ab08&#45;3e9a53b6abc6@/out -->
<g id="edge2" class="edge" data-name="p074e3218-c817-4596-ab08-3e9a53b6abc6-&gt;p074e3218-c817-4596-ab08-3e9a53b6abc6@/out">

<path fill="none" stroke="black" stroke-width="0.3" d="M139.52,-251.81C134.63,-238.94 128.92,-223.89 125.15,-213.94" style=""/>
<polygon fill="black" stroke="black" stroke-width="0.3" points="128.44,-212.75 121.62,-204.64 121.9,-215.24 128.44,-212.75" style=""/>
<text text-anchor="middle" x="139.78" y="-224.8" font-family="Times,serif" font-size="10.00" style="">/out</text>
</g>
<!-- p074e3218&#45;c817&#45;4596&#45;ab08&#45;3e9a53b6abc6@log -->
<g id="node4" class="node" pointer-events="visible" data-name="p074e3218-c817-4596-ab08-3e9a53b6abc6@log">

<ellipse fill="#1c9930" stroke="#1c9930" cx="160" cy="-202" rx="1.8" ry="1.8" style=""/>
</g>
<!-- p074e3218&#45;c817&#45;4596&#45;ab08&#45;3e9a53b6abc6&#45;&gt;p074e3218&#45;c817&#45;4596&#45;ab08&#45;3e9a53b6abc6@log -->
<g id="edge3" class="edge" data-name="p074e3218-c817-4596-ab08-3e9a53b6abc6-&gt;p074e3218-c817-4596-ab08-3e9a53b6abc6@log">

<path fill="none" stroke="black" stroke-width="0.3" d="M152.72,-251.81C154.62,-239.08 156.84,-224.23 158.32,-214.28" style=""/>
<polygon fill="black" stroke="black" stroke-width="0.3" points="161.74,-215.08 159.75,-204.67 154.82,-214.04 161.74,-215.08" style=""/>
<text text-anchor="middle" x="166.72" y="-224.8" font-family="Times,serif" font-size="10.00" style="">(log)</text>
</g>
<!-- pa76da957&#45;d5f2&#45;48c6&#45;a914&#45;99a4de8aee72@/in -->
<g id="node7" class="node" pointer-events="visible" data-name="pa76da957-d5f2-48c6-a914-99a4de8aee72@/in">

<ellipse fill="#1c9930" stroke="#1c9930" cx="121" cy="-161.4" rx="1.8" ry="1.8" style=""/>
</g>
<!-- p074e3218&#45;c817&#45;4596&#45;ab08&#45;3e9a53b6abc6@/out&#45;&gt;pa76da957&#45;d5f2&#45;48c6&#45;a914&#45;99a4de8aee72@/in -->
<g id="edge8" class="edge" data-name="p074e3218-c817-4596-ab08-3e9a53b6abc6@/out-&gt;pa76da957-d5f2-48c6-a914-99a4de8aee72@/in">

<path fill="none" stroke="black" d="M121,-199.72C121,-195.83 121,-183.88 121,-174.54" style=""/>
<polygon fill="black" stroke="black" points="124.5,-174.68 121,-164.68 117.5,-174.68 124.5,-174.68" style=""/>
</g>
<!-- pa76da957&#45;d5f2&#45;48c6&#45;a914&#45;99a4de8aee72@/configs -->
<g id="node5" class="node" pointer-events="visible" data-name="pa76da957-d5f2-48c6-a914-99a4de8aee72@/configs">

<ellipse fill="#1c9930" stroke="#1c9930" cx="155" cy="-161.4" rx="1.8" ry="1.8" style=""/>
</g>
<!-- pa76da957&#45;d5f2&#45;48c6&#45;a914&#45;99a4de8aee72 -->
<g id="node6" class="node" pointer-events="visible" data-name="pa76da957-d5f2-48c6-a914-99a4de8aee72">

<polygon fill="#daa520" stroke="none" points="18,-88.6 18,-106.6 44,-106.6 44,-88.6 18,-88.6" style=""/>
<polygon fill="none" stroke="#daa520" points="18,-88.6 18,-106.6 44,-106.6 44,-88.6 18,-88.6" style=""/>
<text text-anchor="start" x="21.28" y="-95.6" font-family="Times,serif" font-weight="bold" font-size="10.00" fill="#ffffff" style="">Plan</text>
<polygon fill="none" stroke="#daa520" points="44,-88.6 44,-106.6 73,-106.6 73,-88.6 44,-88.6" style=""/>
<text text-anchor="start" x="46.56" y="-94.6" font-family="Times,serif" font-size="10.00" fill="#007700" style="">active</text>
<polygon fill="#ffffff" stroke="none" points="73,-88.6 73,-106.6 259,-106.6 259,-88.6 73,-88.6" style=""/>
<polygon fill="none" stroke="#daa520" points="73,-88.6 73,-106.6 259,-106.6 259,-88.6 73,-88.6" style=""/>
<text text-anchor="start" x="76.17" y="-94.6" font-family="Times,serif" font-size="10.00" style="">id: a76da957-d5f2-48c6-a914-99a4de8aee72</text>
<polygon fill="none" stroke="#daa520" points="18,-70.6 18,-88.6 259,-88.6 259,-70.6 18,-70.6" style=""/>
<text text-anchor="start" x="20.85" y="-76.6" font-family="Times,serif" font-size="10.00" style="">image = localhost:30503/news-classification-evaluate:v1.0</text>
<polygon fill="none" stroke="#daa520" points="18,-64.6 18,-70.6 259,-70.6 259,-64.6 18,-64.6" style=""/>
<polygon fill="none" stroke="#daa520" points="16.5,-63.6 16.5,-107.6 259.5,-107.6 259.5,-63.6 16.5,-63.6" style=""/>
</g>
<!-- pa76da957&#45;d5f2&#45;48c6&#45;a914&#45;99a4de8aee72@/configs&#45;&gt;pa76da957&#45;d5f2&#45;48c6&#45;a914&#45;99a4de8aee72 -->
<g id="edge4" class="edge" data-name="pa76da957-d5f2-48c6-a914-99a4de8aee72@/configs-&gt;pa76da957-d5f2-48c6-a914-99a4de8aee72">

<path fill="none" stroke="black" stroke-width="0.3" d="M154.7,-159.12C153.62,-154.43 149.75,-137.61 146,-121.34" style=""/>
<polygon fill="black" stroke="black" stroke-width="0.3" points="149.47,-120.81 143.82,-111.85 142.65,-122.38 149.47,-120.81" style=""/>
<text text-anchor="middle" x="166.11" y="-132.6" font-family="Times,serif" font-size="10.00" style="">/configs</text>
</g>
<!-- pa76da957&#45;d5f2&#45;48c6&#45;a914&#45;99a4de8aee72@/out -->
<g id="node8" class="node" pointer-events="visible" data-name="pa76da957-d5f2-48c6-a914-99a4de8aee72@/out">

<ellipse fill="#1c9930" stroke="#1c9930" cx="118" cy="-9.8" rx="1.8" ry="1.8" style=""/>
</g>
<!-- pa76da957&#45;d5f2&#45;48c6&#45;a914&#45;99a4de8aee72&#45;&gt;pa76da957&#45;d5f2&#45;48c6&#45;a914&#45;99a4de8aee72@/out -->
<g id="edge6" class="edge" data-name="pa76da957-d5f2-48c6-a914-99a4de8aee72-&gt;pa76da957-d5f2-48c6-a914-99a4de8aee72@/out">

<path fill="none" stroke="black" stroke-width="0.3" d="M131.23,-59.61C127.78,-46.88 123.75,-32.03 121.06,-22.08" style=""/>
<polygon fill="black" stroke="black" stroke-width="0.3" points="124.44,-21.19 118.45,-12.46 117.69,-23.02 124.44,-21.19" style=""/>
<text text-anchor="middle" x="133.78" y="-32.6" font-family="Times,serif" font-size="10.00" style="">/out</text>
</g>
<!-- pa76da957&#45;d5f2&#45;48c6&#45;a914&#45;99a4de8aee72@log -->
<g id="node9" class="node" pointer-events="visible" data-name="pa76da957-d5f2-48c6-a914-99a4de8aee72@log">

<ellipse fill="#1c9930" stroke="#1c9930" cx="157" cy="-9.8" rx="1.8" ry="1.8" style=""/>
</g>
<!-- pa76da957&#45;d5f2&#45;48c6&#45;a914&#45;99a4de8aee72&#45;&gt;pa76da957&#45;d5f2&#45;48c6&#45;a914&#45;99a4de8aee72@log -->
<g id="edge7" class="edge" data-name="pa76da957-d5f2-48c6-a914-99a4de8aee72-&gt;pa76da957-d5f2-48c6-a914-99a4de8aee72@log">

<path fill="none" stroke="black" stroke-width="0.3" d="M144.43,-59.61C147.71,-46.88 151.53,-32.03 154.1,-22.08" style=""/>
<polygon fill="black" stroke="black" stroke-width="0.3" points="157.47,-23.02 156.57,-12.46 150.69,-21.27 157.47,-23.02" style=""/>
<text text-anchor="middle" x="160.72" y="-32.6" font-family="Times,serif" font-size="10.00" style="">(log)</text>
</g>
<!-- pa76da957&#45;d5f2&#45;48c6&#45;a914&#45;99a4de8aee72@/in&#45;&gt;pa76da957&#45;d5f2&#45;48c6&#45;a914&#45;99a4de8aee72 -->
<g id="edge5" class="edge" data-name="pa76da957-d5f2-48c6-a914-99a4de8aee72@/in-&gt;pa76da957-d5f2-48c6-a914-99a4de8aee72">

<path fill="none" stroke="black" stroke-width="0.3" d="M121.3,-159.12C122.38,-154.43 126.25,-137.61 130,-121.34" style=""/>
<polygon fill="black" stroke="black" stroke-width="0.3" points="133.35,-122.38 132.18,-111.85 126.53,-120.81 133.35,-122.38" style=""/>
<text text-anchor="middle" x="132.28" y="-132.6" font-family="Times,serif" font-size="10.00" style="">/in</text>
</g>
</g>
</svg>