<?xml version="1.0" standalone="no"?>
<svg xmlns="http://www.w3.org/2000/svg" xmlns:xlink="http://www.w3.org/1999/xlink" width="1166pt" height="997pt" viewBox="0.00 0.00 1166.00 997.00">
<g id="graph0" class="graph" transform="translate(4,993) scale(1)" data-name="G">

<polygon fill="white" stroke="none" points="-4,4 -4,-993 1162,-993 1162,4 -4,4" style=""/>
<!-- d619e348e&#45;d666&#45;4547&#45;975b&#45;89f861b069da -->
<g id="node1" class="node" pointer-events="visible" data-name="d619e348e-d666-4547-975b-89f861b069da">

<polygon fill="#1c9930" stroke="none" points="379.5,-281.5 379.5,-299.5 405.5,-299.5 405.5,-281.5 379.5,-281.5" style=""/>
<polygon fill="none" stroke="#1c9930" points="379.5,-281.5 379.5,-299.5 405.5,-299.5 405.5,-281.5 379.5,-281.5" style=""/>
<text text-anchor="start" x="382.22" y="-288.5" font-family="Times,serif" font-weight="bold" font-size="10.00" fill="#ffffff" style="">Data</text>
<polygon fill="#d4ecc6" stroke="none" points="405.5,-281.5 405.5,-299.5 614.5,-299.5 614.5,-281.5 405.5,-281.5" style=""/>
<polygon fill="none" stroke="#1c9930" points="405.5,-281.5 405.5,-299.5 614.5,-299.5 614.5,-281.5 405.5,-281.5" style=""/>
<text text-anchor="start" x="408.21" y="-287.5" font-family="Times,serif" font-size="10.00" style="">knit#id: 619e348e-d666-4547-975b-89f861b069da</text>
<polygon fill="none" stroke="#1c9930" points="379.5,-266.5 379.5,-281.5 614.5,-281.5 614.5,-266.5 379.5,-266.5" style=""/>
<text text-anchor="start" x="443.3" y="-271.3" font-family="Times,serif" font-size="8.00" style="">2025-03-06T14:12:27.427+09:00</text>
<polygon fill="none" stroke="#1c9930" points="379.5,-240.5 379.5,-266.5 614.5,-266.5 614.5,-240.5 379.5,-240.5" style=""/>
<text text-anchor="start" x="449.8" y="-255.5" font-family="Times,serif" font-weight="bold" font-size="10.00" style="">project</text>
<text text-anchor="start" x="480.33" y="-255.5" font-family="Times,serif" font-size="10.00" style="">:spam-detection</text>
<text text-anchor="start" x="473.95" y="-245.5" font-family="Times,serif" font-weight="bold" font-size="10.00" style="">type</text>
<text text-anchor="start" x="492.28" y="-245.5" font-family="Times,serif" font-size="10.00" style="">:model</text>
<polygon fill="none" stroke="#1c9930" points="378,-240 378,-301 615,-301 615,-240 378,-240" style=""/>
</g>
<!-- r1d97aaa4&#45;34eb&#45;4c8c&#45;963b&#45;c758a5a8bc7e -->
<g id="node14" class="node" pointer-events="visible" data-name="r1d97aaa4-34eb-4c8c-963b-c758a5a8bc7e">

<polygon fill="#ffa500" stroke="none" points="141.5,-154.5 141.5,-172.5 165.5,-172.5 165.5,-154.5 141.5,-154.5" style=""/>
<polygon fill="none" stroke="#ffa500" points="141.5,-154.5 141.5,-172.5 165.5,-172.5 165.5,-154.5 141.5,-154.5" style=""/>
<text text-anchor="start" x="144.33" y="-161.5" font-family="Times,serif" font-weight="bold" font-size="10.00" fill="#ffffff" style="">Run</text>
<polygon fill="none" stroke="#ffa500" points="165.5,-154.5 165.5,-172.5 191.5,-172.5 191.5,-154.5 165.5,-154.5" style=""/>
<text text-anchor="start" x="168.22" y="-161.5" font-family="Times,serif" font-weight="bold" font-size="10.00" fill="#007700" style="">done</text>
<polygon fill="#ffffff" stroke="none" points="191.5,-154.5 191.5,-172.5 377.5,-172.5 377.5,-154.5 191.5,-154.5" style=""/>
<polygon fill="none" stroke="#ffa500" points="191.5,-154.5 191.5,-172.5 377.5,-172.5 377.5,-154.5 191.5,-154.5" style=""/>
<text text-anchor="start" x="194.4" y="-160.5" font-family="Times,serif" font-size="10.00" style="">id: 1d97aaa4-34eb-4c8c-963b-c758a5a8bc7e</text>
<polygon fill="none" stroke="#ffa500" points="141.5,-139.5 141.5,-154.5 377.5,-154.5 377.5,-139.5 141.5,-139.5" style=""/>
<text text-anchor="start" x="184.47" y="-144.3" font-family="Times,serif" font-size="8.00" style="">last updated: 2025-03-06T14:13:26.961+09:00</text>
<polygon fill="none" stroke="#ffa500" points="141.5,-121.5 141.5,-139.5 377.5,-139.5 377.5,-121.5 141.5,-121.5" style=""/>
<text text-anchor="start" x="150.46" y="-127.5" font-family="Times,serif" font-size="10.00" style="">image = localhost:30503/spam-detection-validate:v1.0</text>
<polygon fill="none" stroke="#ffa500" points="140.5,-121 140.5,-174 378.5,-174 378.5,-121 140.5,-121" style=""/>
</g>
<!-- d619e348e&#45;d666&#45;4547&#45;975b&#45;89f861b069da&#45;&gt;r1d97aaa4&#45;34eb&#45;4c8c&#45;963b&#45;c758a5a8bc7e -->
<g id="edge12" class="edge" data-name="d619e348e-d666-4547-975b-89f861b069da-&gt;r1d97aaa4-34eb-4c8c-963b-c758a5a8bc7e">

<path fill="none" stroke="black" d="M431.11,-236.12C398.7,-219.57 359.61,-199.61 326.93,-182.93" style=""/>
<polygon fill="black" stroke="black" points="328.86,-179.98 318.36,-178.55 325.67,-186.21 328.86,-179.98" style=""/>
<text text-anchor="middle" x="390.67" y="-199" font-family="Times,serif" font-size="10.00" style="">/in/model</text>
</g>
<!-- da0f7b263&#45;d8f1&#45;4884&#45;b6dc&#45;c9af2caf46fa -->
<g id="node2" class="node" pointer-events="visible" data-name="da0f7b263-d8f1-4884-b6dc-c9af2caf46fa">

<polygon fill="#1c9930" stroke="none" points="650.5,-281.5 650.5,-299.5 676.5,-299.5 676.5,-281.5 650.5,-281.5" style=""/>
<polygon fill="none" stroke="#1c9930" points="650.5,-281.5 650.5,-299.5 676.5,-299.5 676.5,-281.5 650.5,-281.5" style=""/>
<text text-anchor="start" x="653.22" y="-288.5" font-family="Times,serif" font-weight="bold" font-size="10.00" fill="#ffffff" style="">Data</text>
<polygon fill="#ffffff" stroke="none" points="676.5,-281.5 676.5,-299.5 876.5,-299.5 876.5,-281.5 676.5,-281.5" style=""/>
<polygon fill="none" stroke="#1c9930" points="676.5,-281.5 676.5,-299.5 876.5,-299.5 876.5,-281.5 676.5,-281.5" style=""/>
<text text-anchor="start" x="679.17" y="-287.5" font-family="Times,serif" font-size="10.00" style="">knit#id: a0f7b263-d8f1-4884-b6dc-c9af2caf46fa</text>
<polygon fill="none" stroke="#1c9930" points="650.5,-266.5 650.5,-281.5 876.5,-281.5 876.5,-266.5 650.5,-266.5" style=""/>
<text text-anchor="start" x="709.8" y="-271.3" font-family="Times,serif" font-size="8.00" style="">2025-03-06T14:12:27.427+09:00</text>
<polygon fill="none" stroke="#1c9930" points="650.5,-240.5 650.5,-266.5 876.5,-266.5 876.5,-240.5 650.5,-240.5" style=""/>
<text text-anchor="start" x="716.3" y="-255.5" font-family="Times,serif" font-weight="bold" font-size="10.00" style="">project</text>
<text text-anchor="start" x="746.83" y="-255.5" font-family="Times,serif" font-size="10.00" style="">:spam-detection</text>
<text text-anchor="start" x="746.56" y="-245.5" font-family="Times,serif" font-weight="bold" font-size="10.00" style="">type</text>
<text text-anchor="start" x="764.89" y="-245.5" font-family="Times,serif" font-size="10.00" style="">:log</text>
<polygon fill="none" stroke="#1c9930" points="649.5,-240 649.5,-301 877.5,-301 877.5,-240 649.5,-240" style=""/>
</g>
<!-- d6c36b010&#45;60a6&#45;47f5&#45;9c25&#45;e079c3ab5c29 -->
<g id="node3" class="node" pointer-events="visible" data-name="d6c36b010-60a6-47f5-9c25-e079c3ab5c29">

<polygon fill="#1c9930" stroke="none" points="380.5,-537.5 380.5,-555.5 406.5,-555.5 406.5,-537.5 380.5,-537.5" style=""/>
<polygon fill="none" stroke="#1c9930" points="380.5,-537.5 380.5,-555.5 406.5,-555.5 406.5,-537.5 380.5,-537.5" style=""/>
<text text-anchor="start" x="383.22" y="-544.5" font-family="Times,serif" font-weight="bold" font-size="10.00" fill="#ffffff" style="">Data</text>
<polygon fill="#ffffff" stroke="none" points="406.5,-537.5 406.5,-555.5 613.5,-555.5 613.5,-537.5 406.5,-537.5" style=""/>
<polygon fill="none" stroke="#1c9930" points="406.5,-537.5 406.5,-555.5 613.5,-555.5 613.5,-537.5 406.5,-537.5" style=""/>
<text text-anchor="start" x="409.33" y="-543.5" font-family="Times,serif" font-size="10.00" style="">knit#id: 6c36b010-60a6-47f5-9c25-e079c3ab5c29</text>
<polygon fill="none" stroke="#1c9930" points="380.5,-522.5 380.5,-537.5 613.5,-537.5 613.5,-522.5 380.5,-522.5" style=""/>
<text text-anchor="start" x="443.3" y="-527.3" font-family="Times,serif" font-size="8.00" style="">2025-03-06T14:12:00.787+09:00</text>
<polygon fill="none" stroke="#1c9930" points="380.5,-476.5 380.5,-522.5 613.5,-522.5 613.5,-476.5 380.5,-476.5" style=""/>
<text text-anchor="start" x="449.52" y="-511.5" font-family="Times,serif" font-weight="bold" font-size="10.00" style="">mode</text>
<text text-anchor="start" x="472.85" y="-511.5" font-family="Times,serif" font-size="10.00" style="">:incremental-train</text>
<text text-anchor="start" x="460.35" y="-501.5" font-family="Times,serif" font-weight="bold" font-size="10.00" style="">name</text>
<text text-anchor="start" x="483.68" y="-501.5" font-family="Times,serif" font-size="10.00" style="">:incremental</text>
<text text-anchor="start" x="449.8" y="-491.5" font-family="Times,serif" font-weight="bold" font-size="10.00" style="">project</text>
<text text-anchor="start" x="480.33" y="-491.5" font-family="Times,serif" font-size="10.00" style="">:spam-detection</text>
<text text-anchor="start" x="472.56" y="-481.5" font-family="Times,serif" font-weight="bold" font-size="10.00" style="">type</text>
<text text-anchor="start" x="490.89" y="-481.5" font-family="Times,serif" font-size="10.00" style="">:dataset</text>
<polygon fill="none" stroke="#1c9930" points="379,-476 379,-557 614,-557 614,-476 379,-476" style=""/>
</g>
<!-- rebe67872&#45;aa1d&#45;4ec2&#45;986b&#45;20d78608192f -->
<g id="node10" class="node" pointer-events="visible" data-name="rebe67872-aa1d-4ec2-986b-20d78608192f">

<polygon fill="#ffa500" stroke="none" points="500.5,-400.5 500.5,-418.5 536.5,-418.5 536.5,-400.5 500.5,-400.5" style=""/>
<polygon fill="none" stroke="#ffa500" points="500.5,-400.5 500.5,-418.5 536.5,-418.5 536.5,-400.5 500.5,-400.5" style=""/>
<text text-anchor="start" x="509.33" y="-407.5" font-family="Times,serif" font-weight="bold" font-size="10.00" fill="#ffffff" style="">Run</text>
<polygon fill="none" stroke="#ffa500" points="536.5,-400.5 536.5,-418.5 568.5,-418.5 568.5,-400.5 536.5,-400.5" style=""/>
<text text-anchor="start" x="542.22" y="-407.5" font-family="Times,serif" font-weight="bold" font-size="10.00" fill="#007700" style="">done</text>
<polygon fill="#ffffff" stroke="none" points="568.5,-400.5 568.5,-418.5 761.5,-418.5 761.5,-400.5 568.5,-400.5" style=""/>
<polygon fill="none" stroke="#ffa500" points="568.5,-400.5 568.5,-418.5 761.5,-418.5 761.5,-400.5 568.5,-400.5" style=""/>
<text text-anchor="start" x="574.33" y="-406.5" font-family="Times,serif" font-size="10.00" style="">id: ebe67872-aa1d-4ec2-986b-20d78608192f</text>
<polygon fill="none" stroke="#ffa500" points="500.5,-385.5 500.5,-400.5 761.5,-400.5 761.5,-385.5 500.5,-385.5" style=""/>
<text text-anchor="start" x="555.97" y="-390.3" font-family="Times,serif" font-size="8.00" style="">last updated: 2025-03-06T14:12:27.427+09:00</text>
<polygon fill="none" stroke="#ffa500" points="500.5,-367.5 500.5,-385.5 761.5,-385.5 761.5,-367.5 500.5,-367.5" style=""/>
<text text-anchor="start" x="503.36" y="-373.5" font-family="Times,serif" font-size="10.00" style="">image = localhost:30503/spam-detection-incremental-train:v1.0</text>
<polygon fill="none" stroke="#ffa500" points="499,-367 499,-420 762,-420 762,-367 499,-367" style=""/>
</g>
<!-- d6c36b010&#45;60a6&#45;47f5&#45;9c25&#45;e079c3ab5c29&#45;&gt;rebe67872&#45;aa1d&#45;4ec2&#45;986b&#45;20d78608192f -->
<g id="edge3" class="edge" data-name="d6c36b010-60a6-47f5-9c25-e079c3ab5c29-&gt;rebe67872-aa1d-4ec2-986b-20d78608192f">

<path fill="none" stroke="black" d="M544.5,-472.16C559.31,-458.78 575.48,-444.18 589.76,-431.29" style=""/>
<polygon fill="black" stroke="black" points="591.72,-434.23 596.8,-424.93 587.03,-429.04 591.72,-434.23" style=""/>
<text text-anchor="middle" x="597.05" y="-445" font-family="Times,serif" font-size="10.00" style="">/in/dataset</text>
</g>
<!-- d8a3ac54f&#45;dcc9&#45;4138&#45;b824&#45;81ec01083161 -->
<g id="node4" class="node" pointer-events="visible" data-name="d8a3ac54f-dcc9-4138-b824-81ec01083161">

<polygon fill="#1c9930" stroke="none" points="649.5,-532.5 649.5,-550.5 675.5,-550.5 675.5,-532.5 649.5,-532.5" style=""/>
<polygon fill="none" stroke="#1c9930" points="649.5,-532.5 649.5,-550.5 675.5,-550.5 675.5,-532.5 649.5,-532.5" style=""/>
<text text-anchor="start" x="652.22" y="-539.5" font-family="Times,serif" font-weight="bold" font-size="10.00" fill="#ffffff" style="">Data</text>
<polygon fill="#ffffff" stroke="none" points="675.5,-532.5 675.5,-550.5 882.5,-550.5 882.5,-532.5 675.5,-532.5" style=""/>
<polygon fill="none" stroke="#1c9930" points="675.5,-532.5 675.5,-550.5 882.5,-550.5 882.5,-532.5 675.5,-532.5" style=""/>
<text text-anchor="start" x="678.33" y="-538.5" font-family="Times,serif" font-size="10.00" style="">knit#id: 8a3ac54f-dcc9-4138-b824-81ec01083161</text>
<polygon fill="none" stroke="#1c9930" points="649.5,-517.5 649.5,-532.5 882.5,-532.5 882.5,-517.5 649.5,-517.5" style=""/>
<text text-anchor="start" x="712.3" y="-522.3" font-family="Times,serif" font-size="8.00" style="">2025-01-27T19:14:58.891+09:00</text>
<polygon fill="none" stroke="#1c9930" points="649.5,-481.5 649.5,-517.5 882.5,-517.5 882.5,-481.5 649.5,-481.5" style=""/>
<text text-anchor="start" x="718.52" y="-506.5" font-family="Times,serif" font-weight="bold" font-size="10.00" style="">mode</text>
<text text-anchor="start" x="741.85" y="-506.5" font-family="Times,serif" font-size="10.00" style="">:incremental-train</text>
<text text-anchor="start" x="718.8" y="-496.5" font-family="Times,serif" font-weight="bold" font-size="10.00" style="">project</text>
<text text-anchor="start" x="749.33" y="-496.5" font-family="Times,serif" font-size="10.00" style="">:spam-detection</text>
<text text-anchor="start" x="742.95" y="-486.5" font-family="Times,serif" font-weight="bold" font-size="10.00" style="">type</text>
<text text-anchor="start" x="761.28" y="-486.5" font-family="Times,serif" font-size="10.00" style="">:model</text>
<polygon fill="none" stroke="#1c9930" points="648,-481 648,-552 883,-552 883,-481 648,-481" style=""/>
</g>
<!-- d8a3ac54f&#45;dcc9&#45;4138&#45;b824&#45;81ec01083161&#45;&gt;rebe67872&#45;aa1d&#45;4ec2&#45;986b&#45;20d78608192f -->
<g id="edge4" class="edge" data-name="d8a3ac54f-dcc9-4138-b824-81ec01083161-&gt;rebe67872-aa1d-4ec2-986b-20d78608192f">

<path fill="none" stroke="black" d="M722.79,-477.21C706.34,-462.47 687.62,-445.69 671.35,-431.11" style=""/>
<polygon fill="black" stroke="black" points="674,-428.79 664.22,-424.72 669.33,-434 674,-428.79" style=""/>
<text text-anchor="middle" x="713.67" y="-445" font-family="Times,serif" font-size="10.00" style="">/in/model</text>
</g>
<!-- d4c37172d&#45;2fd6&#45;46e3&#45;9dfb&#45;be7f91a346dc -->
<g id="node5" class="node" pointer-events="visible" data-name="d4c37172d-2fd6-46e3-9dfb-be7f91a346dc">

<polygon fill="#1c9930" stroke="none" points="918.5,-527.5 918.5,-545.5 944.5,-545.5 944.5,-527.5 918.5,-527.5" style=""/>
<polygon fill="none" stroke="#1c9930" points="918.5,-527.5 918.5,-545.5 944.5,-545.5 944.5,-527.5 918.5,-527.5" style=""/>
<text text-anchor="start" x="921.22" y="-534.5" font-family="Times,serif" font-weight="bold" font-size="10.00" fill="#ffffff" style="">Data</text>
<polygon fill="#ffffff" stroke="none" points="944.5,-527.5 944.5,-545.5 1149.5,-545.5 1149.5,-527.5 944.5,-527.5" style=""/>
<polygon fill="none" stroke="#1c9930" points="944.5,-527.5 944.5,-545.5 1149.5,-545.5 1149.5,-527.5 944.5,-527.5" style=""/>
<text text-anchor="start" x="947.44" y="-533.5" font-family="Times,serif" font-size="10.00" style="">knit#id: 4c37172d-2fd6-46e3-9dfb-be7f91a346dc</text>
<polygon fill="none" stroke="#1c9930" points="918.5,-512.5 918.5,-527.5 1149.5,-527.5 1149.5,-512.5 918.5,-512.5" style=""/>
<text text-anchor="start" x="980.3" y="-517.3" font-family="Times,serif" font-size="8.00" style="">2025-01-27T19:14:58.891+09:00</text>
<polygon fill="none" stroke="#1c9930" points="918.5,-486.5 918.5,-512.5 1149.5,-512.5 1149.5,-486.5 918.5,-486.5" style=""/>
<text text-anchor="start" x="986.8" y="-501.5" font-family="Times,serif" font-weight="bold" font-size="10.00" style="">project</text>
<text text-anchor="start" x="1017.33" y="-501.5" font-family="Times,serif" font-size="10.00" style="">:spam-detection</text>
<text text-anchor="start" x="1017.06" y="-491.5" font-family="Times,serif" font-weight="bold" font-size="10.00" style="">type</text>
<text text-anchor="start" x="1035.39" y="-491.5" font-family="Times,serif" font-size="10.00" style="">:log</text>
<polygon fill="none" stroke="#1c9930" points="917,-486 917,-547 1150,-547 1150,-486 917,-486" style=""/>
</g>
<!-- dde3cec00&#45;d723&#45;40e3&#45;b299&#45;536bacdbbe44 -->
<g id="node6" class="node" pointer-events="visible" data-name="dde3cec00-d723-40e3-b299-536bacdbbe44">

<polygon fill="#1c9930" stroke="none" points="785.5,-783.5 785.5,-801.5 811.5,-801.5 811.5,-783.5 785.5,-783.5" style=""/>
<polygon fill="none" stroke="#1c9930" points="785.5,-783.5 785.5,-801.5 811.5,-801.5 811.5,-783.5 785.5,-783.5" style=""/>
<text text-anchor="start" x="788.22" y="-790.5" font-family="Times,serif" font-weight="bold" font-size="10.00" fill="#ffffff" style="">Data</text>
<polygon fill="#ffffff" stroke="none" points="811.5,-783.5 811.5,-801.5 1019.5,-801.5 1019.5,-783.5 811.5,-783.5" style=""/>
<polygon fill="none" stroke="#1c9930" points="811.5,-783.5 811.5,-801.5 1019.5,-801.5 1019.5,-783.5 811.5,-783.5" style=""/>
<text text-anchor="start" x="814.28" y="-789.5" font-family="Times,serif" font-size="10.00" style="">knit#id: de3cec00-d723-40e3-b299-536bacdbbe44</text>
<polygon fill="none" stroke="#1c9930" points="785.5,-768.5 785.5,-783.5 1019.5,-783.5 1019.5,-768.5 785.5,-768.5" style=""/>
<text text-anchor="start" x="848.8" y="-773.3" font-family="Times,serif" font-size="8.00" style="">2025-01-27T19:14:28.237+09:00</text>
<polygon fill="none" stroke="#1c9930" points="785.5,-722.5 785.5,-768.5 1019.5,-768.5 1019.5,-722.5 785.5,-722.5" style=""/>
<text text-anchor="start" x="866.95" y="-757.5" font-family="Times,serif" font-weight="bold" font-size="10.00" style="">mode</text>
<text text-anchor="start" x="890.28" y="-757.5" font-family="Times,serif" font-size="10.00" style="">:initial-train</text>
<text text-anchor="start" x="877.78" y="-747.5" font-family="Times,serif" font-weight="bold" font-size="10.00" style="">name</text>
<text text-anchor="start" x="901.11" y="-747.5" font-family="Times,serif" font-size="10.00" style="">:initial</text>
<text text-anchor="start" x="855.3" y="-737.5" font-family="Times,serif" font-weight="bold" font-size="10.00" style="">project</text>
<text text-anchor="start" x="885.83" y="-737.5" font-family="Times,serif" font-size="10.00" style="">:spam-detection</text>
<text text-anchor="start" x="878.06" y="-727.5" font-family="Times,serif" font-weight="bold" font-size="10.00" style="">type</text>
<text text-anchor="start" x="896.39" y="-727.5" font-family="Times,serif" font-size="10.00" style="">:dataset</text>
<polygon fill="none" stroke="#1c9930" points="784.5,-722 784.5,-803 1020.5,-803 1020.5,-722 784.5,-722" style=""/>
</g>
<!-- rc79bc54d&#45;87e7&#45;4f2e&#45;82a3&#45;5207898b25ad -->
<g id="node12" class="node" pointer-events="visible" data-name="rc79bc54d-87e7-4f2e-82a3-5207898b25ad">

<polygon fill="#ffa500" stroke="none" points="784.5,-646.5 784.5,-664.5 808.5,-664.5 808.5,-646.5 784.5,-646.5" style=""/>
<polygon fill="none" stroke="#ffa500" points="784.5,-646.5 784.5,-664.5 808.5,-664.5 808.5,-646.5 784.5,-646.5" style=""/>
<text text-anchor="start" x="787.33" y="-653.5" font-family="Times,serif" font-weight="bold" font-size="10.00" fill="#ffffff" style="">Run</text>
<polygon fill="none" stroke="#ffa500" points="808.5,-646.5 808.5,-664.5 834.5,-664.5 834.5,-646.5 808.5,-646.5" style=""/>
<text text-anchor="start" x="811.22" y="-653.5" font-family="Times,serif" font-weight="bold" font-size="10.00" fill="#007700" style="">done</text>
<polygon fill="#ffffff" stroke="none" points="834.5,-646.5 834.5,-664.5 1021.5,-664.5 1021.5,-646.5 834.5,-646.5" style=""/>
<polygon fill="none" stroke="#ffa500" points="834.5,-646.5 834.5,-664.5 1021.5,-664.5 1021.5,-646.5 834.5,-646.5" style=""/>
<text text-anchor="start" x="837.33" y="-652.5" font-family="Times,serif" font-size="10.00" style="">id: c79bc54d-87e7-4f2e-82a3-5207898b25ad</text>
<polygon fill="none" stroke="#ffa500" points="784.5,-631.5 784.5,-646.5 1021.5,-646.5 1021.5,-631.5 784.5,-631.5" style=""/>
<text text-anchor="start" x="827.97" y="-636.3" font-family="Times,serif" font-size="8.00" style="">last updated: 2025-01-27T19:14:58.891+09:00</text>
<polygon fill="none" stroke="#ffa500" points="784.5,-613.5 784.5,-631.5 1021.5,-631.5 1021.5,-613.5 784.5,-613.5" style=""/>
<text text-anchor="start" x="787.29" y="-619.5" font-family="Times,serif" font-size="10.00" style="">image = localhost:30503/spam-detection-initial-train:v1.0</text>
<polygon fill="none" stroke="#ffa500" points="783,-613 783,-666 1022,-666 1022,-613 783,-613" style=""/>
</g>
<!-- dde3cec00&#45;d723&#45;40e3&#45;b299&#45;536bacdbbe44&#45;&gt;rc79bc54d&#45;87e7&#45;4f2e&#45;82a3&#45;5207898b25ad -->
<g id="edge9" class="edge" data-name="dde3cec00-d723-40e3-b299-536bacdbbe44-&gt;rc79bc54d-87e7-4f2e-82a3-5207898b25ad">

<path fill="none" stroke="black" d="M902.5,-718.16C902.5,-706.16 902.5,-693.17 902.5,-681.32" style=""/>
<polygon fill="black" stroke="black" points="906,-681.43 902.5,-671.43 899,-681.43 906,-681.43" style=""/>
<text text-anchor="middle" x="923.05" y="-691" font-family="Times,serif" font-size="10.00" style="">/in/dataset</text>
</g>
<!-- d23af964a&#45;5f21&#45;49f4&#45;b817&#45;9c5cdedd12d1 -->
<g id="node7" class="node" pointer-events="visible" data-name="d23af964a-5f21-49f4-b817-9c5cdedd12d1">

<polygon fill="#1c9930" stroke="none" points="112.5,-291.5 112.5,-309.5 138.5,-309.5 138.5,-291.5 112.5,-291.5" style=""/>
<polygon fill="none" stroke="#1c9930" points="112.5,-291.5 112.5,-309.5 138.5,-309.5 138.5,-291.5 112.5,-291.5" style=""/>
<text text-anchor="start" x="115.22" y="-298.5" font-family="Times,serif" font-weight="bold" font-size="10.00" fill="#ffffff" style="">Data</text>
<polygon fill="#ffffff" stroke="none" points="138.5,-291.5 138.5,-309.5 343.5,-309.5 343.5,-291.5 138.5,-291.5" style=""/>
<polygon fill="none" stroke="#1c9930" points="138.5,-291.5 138.5,-309.5 343.5,-309.5 343.5,-291.5 138.5,-291.5" style=""/>
<text text-anchor="start" x="141.44" y="-297.5" font-family="Times,serif" font-size="10.00" style="">knit#id: 23af964a-5f21-49f4-b817-9c5cdedd12d1</text>
<polygon fill="none" stroke="#1c9930" points="112.5,-276.5 112.5,-291.5 343.5,-291.5 343.5,-276.5 112.5,-276.5" style=""/>
<text text-anchor="start" x="174.3" y="-281.3" font-family="Times,serif" font-size="8.00" style="">2025-01-27T18:51:39.214+09:00</text>
<polygon fill="none" stroke="#1c9930" points="112.5,-230.5 112.5,-276.5 343.5,-276.5 343.5,-230.5 112.5,-230.5" style=""/>
<text text-anchor="start" x="199.12" y="-265.5" font-family="Times,serif" font-weight="bold" font-size="10.00" style="">mode</text>
<text text-anchor="start" x="222.45" y="-265.5" font-family="Times,serif" font-size="10.00" style="">:validate</text>
<text text-anchor="start" x="199.12" y="-255.5" font-family="Times,serif" font-weight="bold" font-size="10.00" style="">name</text>
<text text-anchor="start" x="222.45" y="-255.5" font-family="Times,serif" font-size="10.00" style="">:validate</text>
<text text-anchor="start" x="180.8" y="-245.5" font-family="Times,serif" font-weight="bold" font-size="10.00" style="">project</text>
<text text-anchor="start" x="211.33" y="-245.5" font-family="Times,serif" font-size="10.00" style="">:spam-detection</text>
<text text-anchor="start" x="203.56" y="-235.5" font-family="Times,serif" font-weight="bold" font-size="10.00" style="">type</text>
<text text-anchor="start" x="221.89" y="-235.5" font-family="Times,serif" font-size="10.00" style="">:dataset</text>
<polygon fill="none" stroke="#1c9930" points="111,-230 111,-311 344,-311 344,-230 111,-230" style=""/>
</g>
<!-- d23af964a&#45;5f21&#45;49f4&#45;b817&#45;9c5cdedd12d1&#45;&gt;r1d97aaa4&#45;34eb&#45;4c8c&#45;963b&#45;c758a5a8bc7e -->
<g id="edge13" class="edge" data-name="d23af964a-5f21-49f4-b817-9c5cdedd12d1-&gt;r1d97aaa4-34eb-4c8c-963b-c758a5a8bc7e">

<path fill="none" stroke="black" d="M238.96,-226.16C242.17,-214.03 245.64,-200.9 248.8,-188.95" style=""/>
<polygon fill="black" stroke="black" points="252.16,-189.94 251.33,-179.38 245.39,-188.15 252.16,-189.94" style=""/>
<text text-anchor="middle" x="267.05" y="-199" font-family="Times,serif" font-size="10.00" style="">/in/dataset</text>
</g>
<!-- d8f86a3c3&#45;0530&#45;4421&#45;a845&#45;4b385c9c9a65 -->
<g id="node8" class="node" pointer-events="visible" data-name="d8f86a3c3-0530-4421-a845-4b385c9c9a65">

<polygon fill="#1c9930" stroke="none" points="9.5,-45.5 9.5,-63.5 35.5,-63.5 35.5,-45.5 9.5,-45.5" style=""/>
<polygon fill="none" stroke="#1c9930" points="9.5,-45.5 9.5,-63.5 35.5,-63.5 35.5,-45.5 9.5,-45.5" style=""/>
<text text-anchor="start" x="12.22" y="-52.5" font-family="Times,serif" font-weight="bold" font-size="10.00" fill="#ffffff" style="">Data</text>
<polygon fill="#ffffff" stroke="none" points="35.5,-45.5 35.5,-63.5 242.5,-63.5 242.5,-45.5 35.5,-45.5" style=""/>
<polygon fill="none" stroke="#1c9930" points="35.5,-45.5 35.5,-63.5 242.5,-63.5 242.5,-45.5 35.5,-45.5" style=""/>
<text text-anchor="start" x="38.05" y="-51.5" font-family="Times,serif" font-size="10.00" style="">knit#id: 8f86a3c3-0530-4421-a845-4b385c9c9a65</text>
<polygon fill="none" stroke="#1c9930" points="9.5,-30.5 9.5,-45.5 242.5,-45.5 242.5,-30.5 9.5,-30.5" style=""/>
<text text-anchor="start" x="72.3" y="-35.3" font-family="Times,serif" font-size="8.00" style="">2025-03-06T14:13:26.961+09:00</text>
<polygon fill="none" stroke="#1c9930" points="9.5,-4.5 9.5,-30.5 242.5,-30.5 242.5,-4.5 9.5,-4.5" style=""/>
<text text-anchor="start" x="78.8" y="-19.5" font-family="Times,serif" font-weight="bold" font-size="10.00" style="">project</text>
<text text-anchor="start" x="109.33" y="-19.5" font-family="Times,serif" font-size="10.00" style="">:spam-detection</text>
<text text-anchor="start" x="100.73" y="-9.5" font-family="Times,serif" font-weight="bold" font-size="10.00" style="">type</text>
<text text-anchor="start" x="119.06" y="-9.5" font-family="Times,serif" font-size="10.00" style="">:metrics</text>
<polygon fill="none" stroke="#1c9930" points="8,-4 8,-65 243,-65 243,-4 8,-4" style=""/>
</g>
<!-- d89a51aff&#45;2023&#45;4d06&#45;bd46&#45;6be518970ed4 -->
<g id="node9" class="node" pointer-events="visible" data-name="d89a51aff-2023-4d06-bd46-6be518970ed4">

<polygon fill="#1c9930" stroke="none" points="278.5,-45.5 278.5,-63.5 304.5,-63.5 304.5,-45.5 278.5,-45.5" style=""/>
<polygon fill="none" stroke="#1c9930" points="278.5,-45.5 278.5,-63.5 304.5,-63.5 304.5,-45.5 278.5,-45.5" style=""/>
<text text-anchor="start" x="281.22" y="-52.5" font-family="Times,serif" font-weight="bold" font-size="10.00" fill="#ffffff" style="">Data</text>
<polygon fill="#ffffff" stroke="none" points="304.5,-45.5 304.5,-63.5 511.5,-63.5 511.5,-45.5 304.5,-45.5" style=""/>
<polygon fill="none" stroke="#1c9930" points="304.5,-45.5 304.5,-63.5 511.5,-63.5 511.5,-45.5 304.5,-45.5" style=""/>
<text text-anchor="start" x="307.33" y="-51.5" font-family="Times,serif" font-size="10.00" style="">knit#id: 89a51aff-2023-4d06-bd46-6be518970ed4</text>
<polygon fill="none" stroke="#1c9930" points="278.5,-30.5 278.5,-45.5 511.5,-45.5 511.5,-30.5 278.5,-30.5" style=""/>
<text text-anchor="start" x="341.3" y="-35.3" font-family="Times,serif" font-size="8.00" style="">2025-03-06T14:13:26.961+09:00</text>
<polygon fill="none" stroke="#1c9930" points="278.5,-4.5 278.5,-30.5 511.5,-30.5 511.5,-4.5 278.5,-4.5" style=""/>
<text text-anchor="start" x="347.8" y="-19.5" font-family="Times,serif" font-weight="bold" font-size="10.00" style="">project</text>
<text text-anchor="start" x="378.33" y="-19.5" font-family="Times,serif" font-size="10.00" style="">:spam-detection</text>
<text text-anchor="start" x="378.06" y="-9.5" font-family="Times,serif" font-weight="bold" font-size="10.00" style="">type</text>
<text text-anchor="start" x="396.39" y="-9.5" font-family="Times,serif" font-size="10.00" style="">:log</text>
<polygon fill="none" stroke="#1c9930" points="277,-4 277,-65 512,-65 512,-4 277,-4" style=""/>
</g>
<!-- rebe67872&#45;aa1d&#45;4ec2&#45;986b&#45;20d78608192f&#45;&gt;d619e348e&#45;d666&#45;4547&#45;975b&#45;89f861b069da -->
<g id="edge1" class="edge" data-name="rebe67872-aa1d-4ec2-986b-20d78608192f-&gt;d619e348e-d666-4547-975b-89f861b069da">

<path fill="none" stroke="black" d="M598.06,-363.21C581.14,-347.92 560.16,-328.98 541.67,-312.29" style=""/>
<polygon fill="black" stroke="black" points="544.26,-309.91 534.49,-305.81 539.57,-315.11 544.26,-309.91" style=""/>
<text text-anchor="middle" x="598.17" y="-336" font-family="Times,serif" font-size="10.00" style="">/out/model</text>
</g>
<!-- rebe67872&#45;aa1d&#45;4ec2&#45;986b&#45;20d78608192f&#45;&gt;da0f7b263&#45;d8f1&#45;4884&#45;b6dc&#45;c9af2caf46fa -->
<g id="edge2" class="edge" data-name="rebe67872-aa1d-4ec2-986b-20d78608192f-&gt;da0f7b263-d8f1-4884-b6dc-c9af2caf46fa">

<path fill="none" stroke="black" d="M662.7,-363.21C679.5,-347.92 700.32,-328.98 718.67,-312.29" style=""/>
<polygon fill="black" stroke="black" points="720.74,-315.13 725.78,-305.81 716.03,-309.95 720.74,-315.13" style=""/>
<text text-anchor="middle" x="703.22" y="-336" font-family="Times,serif" font-size="10.00" style="">(log)</text>
</g>
<!-- r2d5b0d31&#45;3cdb&#45;488c&#45;b30e&#45;60e5027b2057 -->
<g id="node11" class="node" pointer-events="visible" data-name="r2d5b0d31-3cdb-488c-b30e-60e5027b2057">

<polygon fill="#ffa500" stroke="none" points="376.5,-646.5 376.5,-664.5 400.5,-664.5 400.5,-646.5 376.5,-646.5" style=""/>
<polygon fill="none" stroke="#ffa500" points="376.5,-646.5 376.5,-664.5 400.5,-664.5 400.5,-646.5 376.5,-646.5" style=""/>
<text text-anchor="start" x="379.33" y="-653.5" font-family="Times,serif" font-weight="bold" font-size="10.00" fill="#ffffff" style="">Run</text>
<polygon fill="none" stroke="#ffa500" points="400.5,-646.5 400.5,-664.5 426.5,-664.5 426.5,-646.5 400.5,-646.5" style=""/>
<text text-anchor="start" x="403.22" y="-653.5" font-family="Times,serif" font-weight="bold" font-size="10.00" fill="#007700" style="">done</text>
<polygon fill="#ffffff" stroke="none" points="426.5,-646.5 426.5,-664.5 616.5,-664.5 616.5,-646.5 426.5,-646.5" style=""/>
<polygon fill="none" stroke="#ffa500" points="426.5,-646.5 426.5,-664.5 616.5,-664.5 616.5,-646.5 426.5,-646.5" style=""/>
<text text-anchor="start" x="429.43" y="-652.5" font-family="Times,serif" font-size="10.00" style="">id: 2d5b0d31-3cdb-488c-b30e-60e5027b2057</text>
<polygon fill="none" stroke="#ffa500" points="376.5,-631.5 376.5,-646.5 616.5,-646.5 616.5,-631.5 376.5,-631.5" style=""/>
<text text-anchor="start" x="421.47" y="-636.3" font-family="Times,serif" font-size="8.00" style="">last updated: 2025-03-06T14:12:00.787+09:00</text>
<polygon fill="none" stroke="#ffa500" points="376.5,-613.5 376.5,-631.5 616.5,-631.5 616.5,-613.5 376.5,-613.5" style=""/>
<text text-anchor="start" x="467.89" y="-619.5" font-family="Times,serif" font-size="10.00" style="">knit#uploaded</text>
<polygon fill="none" stroke="#ffa500" points="375.5,-613 375.5,-666 617.5,-666 617.5,-613 375.5,-613" style=""/>
</g>
<!-- r2d5b0d31&#45;3cdb&#45;488c&#45;b30e&#45;60e5027b2057&#45;&gt;d6c36b010&#45;60a6&#45;47f5&#45;9c25&#45;e079c3ab5c29 -->
<g id="edge5" class="edge" data-name="r2d5b0d31-3cdb-488c-b30e-60e5027b2057-&gt;d6c36b010-60a6-47f5-9c25-e079c3ab5c29">

<path fill="none" stroke="black" d="M496.5,-609.21C496.5,-597.96 496.5,-584.72 496.5,-571.86" style=""/>
<polygon fill="black" stroke="black" points="500,-572.23 496.5,-562.23 493,-572.23 500,-572.23" style=""/>
<text text-anchor="middle" x="511.5" y="-582" font-family="Times,serif" font-size="10.00" style="">/upload</text>
</g>
<!-- rc79bc54d&#45;87e7&#45;4f2e&#45;82a3&#45;5207898b25ad&#45;&gt;d8a3ac54f&#45;dcc9&#45;4138&#45;b824&#45;81ec01083161 -->
<g id="edge7" class="edge" data-name="rc79bc54d-87e7-4f2e-82a3-5207898b25ad-&gt;d8a3ac54f-dcc9-4138-b824-81ec01083161">

<path fill="none" stroke="black" d="M869.34,-609.21C853.75,-595.44 834.81,-578.71 817.39,-563.33" style=""/>
<polygon fill="black" stroke="black" points="819.93,-560.9 810.11,-556.9 815.29,-566.15 819.93,-560.9" style=""/>
<text text-anchor="middle" x="867.17" y="-582" font-family="Times,serif" font-size="10.00" style="">/out/model</text>
</g>
<!-- rc79bc54d&#45;87e7&#45;4f2e&#45;82a3&#45;5207898b25ad&#45;&gt;d4c37172d&#45;2fd6&#45;46e3&#45;9dfb&#45;be7f91a346dc -->
<g id="edge8" class="edge" data-name="rc79bc54d-87e7-4f2e-82a3-5207898b25ad-&gt;d4c37172d-2fd6-46e3-9dfb-be7f91a346dc">

<path fill="none" stroke="black" d="M934.21,-609.21C950.76,-593.92 971.27,-574.98 989.34,-558.29" style=""/>
<polygon fill="black" stroke="black" points="991.37,-561.18 996.34,-551.82 986.62,-556.03 991.37,-561.18" style=""/>
<text text-anchor="middle" x="973.22" y="-582" font-family="Times,serif" font-size="10.00" style="">(log)</text>
</g>
<!-- r596103be&#45;a880&#45;4a02&#45;aea8&#45;adfdbef1020b -->
<g id="node13" class="node" pointer-events="visible" data-name="r596103be-a880-4a02-aea8-adfdbef1020b">

<polygon fill="#ffa500" stroke="none" points="785.5,-892.5 785.5,-910.5 809.5,-910.5 809.5,-892.5 785.5,-892.5" style=""/>
<polygon fill="none" stroke="#ffa500" points="785.5,-892.5 785.5,-910.5 809.5,-910.5 809.5,-892.5 785.5,-892.5" style=""/>
<text text-anchor="start" x="788.33" y="-899.5" font-family="Times,serif" font-weight="bold" font-size="10.00" fill="#ffffff" style="">Run</text>
<polygon fill="none" stroke="#ffa500" points="809.5,-892.5 809.5,-910.5 835.5,-910.5 835.5,-892.5 809.5,-892.5" style=""/>
<text text-anchor="start" x="812.22" y="-899.5" font-family="Times,serif" font-weight="bold" font-size="10.00" fill="#007700" style="">done</text>
<polygon fill="#ffffff" stroke="none" points="835.5,-892.5 835.5,-910.5 1019.5,-910.5 1019.5,-892.5 835.5,-892.5" style=""/>
<polygon fill="none" stroke="#ffa500" points="835.5,-892.5 835.5,-910.5 1019.5,-910.5 1019.5,-892.5 835.5,-892.5" style=""/>
<text text-anchor="start" x="838.23" y="-898.5" font-family="Times,serif" font-size="10.00" style="">id: 596103be-a880-4a02-aea8-adfdbef1020b</text>
<polygon fill="none" stroke="#ffa500" points="785.5,-877.5 785.5,-892.5 1019.5,-892.5 1019.5,-877.5 785.5,-877.5" style=""/>
<text text-anchor="start" x="827.47" y="-882.3" font-family="Times,serif" font-size="8.00" style="">last updated: 2025-01-27T19:14:28.237+09:00</text>
<polygon fill="none" stroke="#ffa500" points="785.5,-859.5 785.5,-877.5 1019.5,-877.5 1019.5,-859.5 785.5,-859.5" style=""/>
<text text-anchor="start" x="873.89" y="-865.5" font-family="Times,serif" font-size="10.00" style="">knit#uploaded</text>
<polygon fill="none" stroke="#ffa500" points="784.5,-859 784.5,-912 1020.5,-912 1020.5,-859 784.5,-859" style=""/>
</g>
<!-- r596103be&#45;a880&#45;4a02&#45;aea8&#45;adfdbef1020b&#45;&gt;dde3cec00&#45;d723&#45;40e3&#45;b299&#45;536bacdbbe44 -->
<g id="edge10" class="edge" data-name="r596103be-a880-4a02-aea8-adfdbef1020b-&gt;dde3cec00-d723-40e3-b299-536bacdbbe44">

<path fill="none" stroke="black" d="M902.5,-855.21C902.5,-843.96 902.5,-830.72 902.5,-817.86" style=""/>
<polygon fill="black" stroke="black" points="906,-818.23 902.5,-808.23 899,-818.23 906,-818.23" style=""/>
<text text-anchor="middle" x="917.5" y="-828" font-family="Times,serif" font-size="10.00" style="">/upload</text>
</g>
<!-- r1d97aaa4&#45;34eb&#45;4c8c&#45;963b&#45;c758a5a8bc7e&#45;&gt;d8f86a3c3&#45;0530&#45;4421&#45;a845&#45;4b385c9c9a65 -->
<g id="edge14" class="edge" data-name="r1d97aaa4-34eb-4c8c-963b-c758a5a8bc7e-&gt;d8f86a3c3-0530-4421-a845-4b385c9c9a65">

<path fill="none" stroke="black" d="M223.94,-117.05C208.62,-104.36 190.47,-89.32 173.95,-75.63" style=""/>
<polygon fill="black" stroke="black" points="176.58,-73.27 166.65,-69.59 172.12,-78.66 176.58,-73.27" style=""/>
<text text-anchor="middle" x="225.38" y="-90" font-family="Times,serif" font-size="10.00" style="">/out/metrics</text>
</g>
<!-- r1d97aaa4&#45;34eb&#45;4c8c&#45;963b&#45;c758a5a8bc7e&#45;&gt;d89a51aff&#45;2023&#45;4d06&#45;bd46&#45;6be518970ed4 -->
<g id="edge15" class="edge" data-name="r1d97aaa4-34eb-4c8c-963b-c758a5a8bc7e-&gt;d89a51aff-2023-4d06-bd46-6be518970ed4">

<path fill="none" stroke="black" d="M295.32,-117.05C310.76,-104.36 329.04,-89.32 345.69,-75.63" style=""/>
<polygon fill="black" stroke="black" points="347.55,-78.64 353.05,-69.58 343.1,-73.23 347.55,-78.64" style=""/>
<text text-anchor="middle" x="341.22" y="-90" font-family="Times,serif" font-size="10.00" style="">(log)</text>
</g>
<!-- root#0 -->
<g id="node15" class="node" pointer-events="visible" data-name="root#0">

<polygon fill="none" stroke="black" points="496.5,-780.5 460.88,-762.5 496.5,-744.5 532.12,-762.5 496.5,-780.5" style=""/>
<polyline fill="none" stroke="black" points="471.59,-767.91 471.59,-757.09" style=""/>
<polyline fill="none" stroke="black" points="485.79,-749.91 507.21,-749.91" style=""/>
<polyline fill="none" stroke="black" points="521.41,-757.09 521.41,-767.91" style=""/>
<polyline fill="none" stroke="black" points="507.21,-775.09 485.79,-775.09" style=""/>
<text text-anchor="middle" x="496.5" y="-759.5" font-family="Times,serif" font-size="10.00" style="">root#0</text>
</g>
<!-- root#0&#45;&gt;r2d5b0d31&#45;3cdb&#45;488c&#45;b30e&#45;60e5027b2057 -->
<g id="edge6" class="edge" data-name="root#0-&gt;r2d5b0d31-3cdb-488c-b30e-60e5027b2057">

<path fill="none" stroke="black" d="M496.5,-744.16C496.5,-727.84 496.5,-702.78 496.5,-681.38" style=""/>
<polygon fill="black" stroke="black" points="500,-681.47 496.5,-671.47 493,-681.47 500,-681.47" style=""/>
</g>
<!-- root#1 -->
<g id="node16" class="node" pointer-events="visible" data-name="root#1">

<polygon fill="none" stroke="black" points="902.5,-989 866.88,-971 902.5,-953 938.12,-971 902.5,-989" style=""/>
<polyline fill="none" stroke="black" points="877.59,-976.41 877.59,-965.59" style=""/>
<polyline fill="none" stroke="black" points="891.79,-958.41 913.21,-958.41" style=""/>
<polyline fill="none" stroke="black" points="927.41,-965.59 927.41,-976.41" style=""/>
<polyline fill="none" stroke="black" points="913.21,-983.59 891.79,-983.59" style=""/>
<text text-anchor="middle" x="902.5" y="-968" font-family="Times,serif" font-size="10.00" style="">root#1</text>
</g>
<!-- root#1&#45;&gt;r596103be&#45;a880&#45;4a02&#45;aea8&#45;adfdbef1020b -->
<g id="edge11" class="edge" data-name="root#1-&gt;r596103be-a880-4a02-aea8-adfdbef1020b">

<path fill="none" stroke="black" d="M902.5,-952.7C902.5,-945.24 902.5,-936.18 902.5,-927.18" style=""/>
<polygon fill="black" stroke="black" points="906,-927.46 902.5,-917.46 899,-927.46 906,-927.46" style=""/>
</g>
</g>
</svg>